<svg width="200" height="13" viewBox="0 0 200 13" fill="none" xmlns="http://www.w3.org/2000/svg">
<path d="M6.7623 11.408V12H0.922301V11.408H3.5223V2.224C3.5223 2.04267 3.5303 1.85067 3.5463 1.648L1.0503 3.864C0.975634 3.928 0.900968 3.952 0.826301 3.936C0.751634 3.92 0.692967 3.888 0.650301 3.84L0.418301 3.52L3.6903 0.631999H4.2903V11.408H6.7623Z" fill="#EF5B70"/>
<path d="M37.7383 11.28C37.8236 11.28 37.8903 11.3067 37.9383 11.36C37.9863 11.408 38.0103 11.472 38.0103 11.552V12H30.7063V11.728C30.7063 11.6693 30.7196 11.6107 30.7463 11.552C30.7783 11.488 30.8183 11.4347 30.8663 11.392L34.7303 7.48C35.0503 7.15467 35.3463 6.84 35.6183 6.536C35.8903 6.232 36.125 5.92533 36.3223 5.616C36.525 5.30667 36.6823 4.98933 36.7943 4.664C36.9063 4.33867 36.9623 3.992 36.9623 3.624C36.9623 3.208 36.893 2.848 36.7543 2.544C36.6156 2.23467 36.4316 1.98133 36.2023 1.784C35.973 1.58667 35.7063 1.44 35.4023 1.344C35.0983 1.248 34.7836 1.2 34.4583 1.2C34.101 1.2 33.7703 1.256 33.4663 1.368C33.1676 1.47467 32.901 1.62667 32.6663 1.824C32.437 2.016 32.245 2.248 32.0903 2.52C31.941 2.78667 31.837 3.08 31.7783 3.4C31.741 3.51733 31.6903 3.59467 31.6263 3.632C31.5676 3.66933 31.485 3.68267 31.3783 3.672L30.9863 3.608C31.0556 3.12267 31.189 2.69067 31.3863 2.312C31.5836 1.93333 31.8343 1.61333 32.1383 1.352C32.4423 1.09067 32.7943 0.893332 33.1943 0.759999C33.5943 0.621332 34.0263 0.551999 34.4903 0.551999C34.9223 0.551999 35.333 0.615999 35.7223 0.743999C36.117 0.866666 36.4636 1.056 36.7623 1.312C37.0663 1.56267 37.3063 1.88 37.4823 2.264C37.6583 2.64267 37.7463 3.088 37.7463 3.6C37.7463 4.02667 37.6796 4.424 37.5463 4.792C37.4183 5.15467 37.2423 5.504 37.0183 5.84C36.7943 6.176 36.533 6.504 36.2343 6.824C35.941 7.13867 35.6316 7.46133 35.3063 7.792L31.7623 11.408C31.933 11.3653 32.109 11.3333 32.2903 11.312C32.477 11.2907 32.6636 11.28 32.8503 11.28H37.7383ZM62.0343 3.608C62.1036 3.12267 62.237 2.69067 62.4343 2.312C62.6316 1.93333 62.8823 1.61333 63.1863 1.352C63.4903 1.09067 63.8423 0.893332 64.2423 0.759999C64.6423 0.621332 65.0743 0.551999 65.5383 0.551999C65.9703 0.551999 66.3783 0.613332 66.7623 0.735999C67.1463 0.853333 67.4823 1.032 67.7703 1.272C68.0636 1.512 68.293 1.81067 68.4583 2.168C68.629 2.52533 68.7143 2.93867 68.7143 3.408C68.7143 3.776 68.6583 4.10933 68.5463 4.408C68.4343 4.70133 68.277 4.96 68.0743 5.184C67.877 5.408 67.6423 5.59733 67.3703 5.752C67.0983 5.90133 66.8023 6.016 66.4823 6.096C67.3143 6.25067 67.941 6.57333 68.3623 7.064C68.789 7.54933 69.0023 8.15733 69.0023 8.888C69.0023 9.352 68.909 9.784 68.7223 10.184C68.5356 10.5787 68.2796 10.92 67.9543 11.208C67.629 11.496 67.245 11.7227 66.8023 11.888C66.3596 12.048 65.8796 12.128 65.3623 12.128C64.717 12.128 64.1783 12.0427 63.7463 11.872C63.3196 11.696 62.9676 11.4693 62.6903 11.192C62.413 10.9147 62.197 10.6053 62.0423 10.264C61.8876 9.91733 61.7623 9.57333 61.6663 9.232L61.9703 9.104C62.0556 9.06667 62.1436 9.056 62.2343 9.072C62.3303 9.088 62.3996 9.14933 62.4423 9.256C62.469 9.32 62.5036 9.42133 62.5463 9.56C62.5943 9.69333 62.661 9.84267 62.7463 10.008C62.8316 10.1733 62.941 10.344 63.0743 10.52C63.213 10.6907 63.3836 10.848 63.5863 10.992C63.7943 11.136 64.0423 11.2533 64.3303 11.344C64.6183 11.4347 64.9596 11.48 65.3543 11.48C65.8343 11.48 66.253 11.4 66.6103 11.24C66.973 11.08 67.2743 10.8773 67.5143 10.632C67.7596 10.3813 67.941 10.104 68.0583 9.8C68.181 9.49067 68.2423 9.192 68.2423 8.904C68.2423 8.55733 68.1863 8.23467 68.0743 7.936C67.9676 7.63733 67.7863 7.38133 67.5303 7.168C67.2743 6.94933 66.9356 6.77867 66.5143 6.656C66.0983 6.528 65.5836 6.464 64.9703 6.464V5.912C65.461 5.90133 65.893 5.83733 66.2663 5.72C66.6396 5.59733 66.9516 5.432 67.2023 5.224C67.453 5.016 67.6423 4.768 67.7703 4.48C67.8983 4.192 67.9623 3.87467 67.9623 3.528C67.9623 3.128 67.8956 2.78133 67.7623 2.488C67.629 2.19467 67.4503 1.952 67.2263 1.76C67.0023 1.568 66.741 1.42667 66.4423 1.336C66.1436 1.24533 65.8316 1.2 65.5063 1.2C65.149 1.2 64.8183 1.256 64.5143 1.368C64.2103 1.47467 63.941 1.62667 63.7063 1.824C63.477 2.016 63.285 2.248 63.1303 2.52C62.9756 2.78667 62.869 3.08 62.8103 3.4C62.7783 3.51733 62.733 3.59467 62.6743 3.632C62.6156 3.66933 62.533 3.68267 62.4263 3.672L62.0343 3.608ZM97.8103 8.144V2.216C97.8103 2.12533 97.813 2.02667 97.8183 1.92C97.829 1.81333 97.8396 1.704 97.8503 1.592L92.9543 8.144H97.8103ZM100.554 8.144V8.56C100.554 8.61867 100.536 8.66667 100.498 8.704C100.466 8.736 100.413 8.752 100.338 8.752H98.4823V12H97.8103V8.752H92.4583C92.3783 8.752 92.317 8.736 92.2743 8.704C92.2316 8.66667 92.2023 8.61867 92.1863 8.56L92.1143 8.184L97.8023 0.664H98.4823V8.144H100.554ZM125.266 5.16C125.624 5.06933 125.96 5.00533 126.274 4.968C126.594 4.92533 126.898 4.904 127.186 4.904C127.778 4.904 128.298 4.98933 128.746 5.16C129.194 5.32533 129.568 5.56 129.866 5.864C130.17 6.16267 130.397 6.52 130.546 6.936C130.701 7.352 130.778 7.80533 130.778 8.296C130.778 8.89333 130.674 9.42933 130.466 9.904C130.264 10.3733 129.984 10.7733 129.626 11.104C129.269 11.4347 128.853 11.688 128.378 11.864C127.904 12.04 127.4 12.128 126.866 12.128C126.557 12.128 126.258 12.0987 125.97 12.04C125.688 11.9867 125.421 11.9147 125.17 11.824C124.925 11.728 124.696 11.6187 124.482 11.496C124.274 11.3733 124.09 11.248 123.93 11.12L124.162 10.808C124.21 10.728 124.285 10.688 124.386 10.688C124.456 10.688 124.554 10.728 124.682 10.808C124.816 10.888 124.984 10.976 125.186 11.072C125.394 11.168 125.64 11.256 125.922 11.336C126.205 11.416 126.533 11.456 126.906 11.456C127.344 11.456 127.752 11.3867 128.13 11.248C128.509 11.104 128.837 10.8987 129.114 10.632C129.392 10.3653 129.608 10.0373 129.762 9.648C129.922 9.25333 130.002 8.808 130.002 8.312C130.002 7.90667 129.941 7.53333 129.818 7.192C129.701 6.85067 129.52 6.56 129.274 6.32C129.034 6.07467 128.728 5.88533 128.354 5.752C127.986 5.61333 127.552 5.544 127.05 5.544C126.746 5.544 126.424 5.568 126.082 5.616C125.741 5.664 125.378 5.74133 124.994 5.848L124.506 5.696L125.386 0.679999H130.482V1.008C130.482 1.11467 130.445 1.20533 130.37 1.28C130.301 1.34933 130.189 1.384 130.034 1.384H125.938L125.266 5.16ZM158.418 11.496C158.877 11.496 159.29 11.424 159.658 11.28C160.026 11.136 160.338 10.9387 160.594 10.688C160.856 10.432 161.056 10.1307 161.194 9.784C161.333 9.432 161.402 9.05067 161.402 8.64C161.402 8.208 161.333 7.81867 161.194 7.472C161.061 7.12 160.869 6.824 160.618 6.584C160.373 6.33867 160.08 6.152 159.738 6.024C159.397 5.89067 159.018 5.824 158.602 5.824C158.133 5.824 157.712 5.90667 157.338 6.072C156.97 6.232 156.658 6.44267 156.402 6.704C156.146 6.96 155.952 7.25333 155.818 7.584C155.685 7.91467 155.618 8.248 155.618 8.584C155.618 9.00533 155.682 9.39467 155.81 9.752C155.944 10.1093 156.13 10.4187 156.37 10.68C156.61 10.936 156.904 11.136 157.25 11.28C157.597 11.424 157.986 11.496 158.418 11.496ZM157.106 5.088C156.941 5.30667 156.789 5.512 156.65 5.704C156.512 5.896 156.386 6.08533 156.274 6.272C156.589 5.94667 156.962 5.69333 157.394 5.512C157.826 5.32533 158.298 5.232 158.81 5.232C159.296 5.232 159.744 5.312 160.154 5.472C160.565 5.632 160.917 5.85867 161.21 6.152C161.509 6.44 161.741 6.792 161.906 7.208C162.077 7.61867 162.162 8.08 162.162 8.592C162.162 9.104 162.069 9.576 161.882 10.008C161.701 10.44 161.445 10.8133 161.114 11.128C160.789 11.4427 160.397 11.688 159.938 11.864C159.48 12.04 158.976 12.128 158.426 12.128C157.898 12.128 157.416 12.0427 156.978 11.872C156.541 11.7013 156.165 11.456 155.85 11.136C155.541 10.816 155.301 10.4267 155.13 9.968C154.96 9.504 154.874 8.98133 154.874 8.4C154.874 7.95733 154.986 7.45867 155.21 6.904C155.434 6.344 155.802 5.71733 156.314 5.024L159.402 0.863999C159.493 0.741333 159.629 0.679999 159.81 0.679999H160.482L157.106 5.088ZM164.196 11.384C164.196 11.2827 164.214 11.1867 164.252 11.096C164.289 11.0053 164.34 10.928 164.404 10.864C164.473 10.7947 164.55 10.7413 164.636 10.704C164.726 10.6613 164.825 10.64 164.932 10.64C165.033 10.64 165.129 10.6613 165.22 10.704C165.31 10.7413 165.388 10.7947 165.452 10.864C165.521 10.928 165.574 11.0053 165.612 11.096C165.654 11.1867 165.676 11.2827 165.676 11.384C165.676 11.4907 165.654 11.5893 165.612 11.68C165.574 11.7653 165.521 11.8427 165.452 11.912C165.388 11.976 165.31 12.0267 165.22 12.064C165.129 12.1013 165.033 12.12 164.932 12.12C164.724 12.12 164.548 12.0507 164.404 11.912C164.265 11.768 164.196 11.592 164.196 11.384ZM167.93 11.384C167.93 11.2827 167.949 11.1867 167.986 11.096C168.023 11.0053 168.074 10.928 168.138 10.864C168.207 10.7947 168.285 10.7413 168.37 10.704C168.461 10.6613 168.559 10.64 168.666 10.64C168.767 10.64 168.863 10.6613 168.954 10.704C169.045 10.7413 169.122 10.7947 169.186 10.864C169.255 10.928 169.309 11.0053 169.346 11.096C169.389 11.1867 169.41 11.2827 169.41 11.384C169.41 11.4907 169.389 11.5893 169.346 11.68C169.309 11.7653 169.255 11.8427 169.186 11.912C169.122 11.976 169.045 12.0267 168.954 12.064C168.863 12.1013 168.767 12.12 168.666 12.12C168.458 12.12 168.282 12.0507 168.138 11.912C167.999 11.768 167.93 11.592 167.93 11.384ZM171.664 11.384C171.664 11.2827 171.683 11.1867 171.72 11.096C171.758 11.0053 171.808 10.928 171.872 10.864C171.942 10.7947 172.019 10.7413 172.104 10.704C172.195 10.6613 172.294 10.64 172.4 10.64C172.502 10.64 172.598 10.6613 172.688 10.704C172.779 10.7413 172.856 10.7947 172.92 10.864C172.99 10.928 173.043 11.0053 173.08 11.096C173.123 11.1867 173.144 11.2827 173.144 11.384C173.144 11.4907 173.123 11.5893 173.08 11.68C173.043 11.7653 172.99 11.8427 172.92 11.912C172.856 11.976 172.779 12.0267 172.688 12.064C172.598 12.1013 172.502 12.12 172.4 12.12C172.192 12.12 172.016 12.0507 171.872 11.912C171.734 11.768 171.664 11.592 171.664 11.384ZM175.399 11.384C175.399 11.2827 175.417 11.1867 175.455 11.096C175.492 11.0053 175.543 10.928 175.607 10.864C175.676 10.7947 175.753 10.7413 175.839 10.704C175.929 10.6613 176.028 10.64 176.135 10.64C176.236 10.64 176.332 10.6613 176.423 10.704C176.513 10.7413 176.591 10.7947 176.655 10.864C176.724 10.928 176.777 11.0053 176.815 11.096C176.857 11.1867 176.879 11.2827 176.879 11.384C176.879 11.4907 176.857 11.5893 176.815 11.68C176.777 11.7653 176.724 11.8427 176.655 11.912C176.591 11.976 176.513 12.0267 176.423 12.064C176.332 12.1013 176.236 12.12 176.135 12.12C175.927 12.12 175.751 12.0507 175.607 11.912C175.468 11.768 175.399 11.592 175.399 11.384ZM179.133 11.384C179.133 11.2827 179.152 11.1867 179.189 11.096C179.226 11.0053 179.277 10.928 179.341 10.864C179.41 10.7947 179.488 10.7413 179.573 10.704C179.664 10.6613 179.762 10.64 179.869 10.64C179.97 10.64 180.066 10.6613 180.157 10.704C180.248 10.7413 180.325 10.7947 180.389 10.864C180.458 10.928 180.512 11.0053 180.549 11.096C180.592 11.1867 180.613 11.2827 180.613 11.384C180.613 11.4907 180.592 11.5893 180.549 11.68C180.512 11.7653 180.458 11.8427 180.389 11.912C180.325 11.976 180.248 12.0267 180.157 12.064C180.066 12.1013 179.97 12.12 179.869 12.12C179.661 12.12 179.485 12.0507 179.341 11.912C179.202 11.768 179.133 11.592 179.133 11.384ZM189.691 11.28C189.777 11.28 189.843 11.3067 189.891 11.36C189.939 11.408 189.963 11.472 189.963 11.552V12H182.659V11.728C182.659 11.6693 182.673 11.6107 182.699 11.552C182.731 11.488 182.771 11.4347 182.819 11.392L186.683 7.48C187.003 7.15467 187.299 6.84 187.571 6.536C187.843 6.232 188.078 5.92533 188.275 5.616C188.478 5.30667 188.635 4.98933 188.747 4.664C188.859 4.33867 188.915 3.992 188.915 3.624C188.915 3.208 188.846 2.848 188.707 2.544C188.569 2.23467 188.385 1.98133 188.155 1.784C187.926 1.58667 187.659 1.44 187.355 1.344C187.051 1.248 186.737 1.2 186.411 1.2C186.054 1.2 185.723 1.256 185.419 1.368C185.121 1.47467 184.854 1.62667 184.619 1.824C184.39 2.016 184.198 2.248 184.043 2.52C183.894 2.78667 183.79 3.08 183.731 3.4C183.694 3.51733 183.643 3.59467 183.579 3.632C183.521 3.66933 183.438 3.68267 183.331 3.672L182.939 3.608C183.009 3.12267 183.142 2.69067 183.339 2.312C183.537 1.93333 183.787 1.61333 184.091 1.352C184.395 1.09067 184.747 0.893332 185.147 0.759999C185.547 0.621332 185.979 0.551999 186.443 0.551999C186.875 0.551999 187.286 0.615999 187.675 0.743999C188.07 0.866666 188.417 1.056 188.715 1.312C189.019 1.56267 189.259 1.88 189.435 2.264C189.611 2.64267 189.699 3.088 189.699 3.6C189.699 4.02667 189.633 4.424 189.499 4.792C189.371 5.15467 189.195 5.504 188.971 5.84C188.747 6.176 188.486 6.504 188.187 6.824C187.894 7.13867 187.585 7.46133 187.259 7.792L183.715 11.408C183.886 11.3653 184.062 11.3333 184.243 11.312C184.43 11.2907 184.617 11.28 184.803 11.28H189.691ZM199.717 6.336C199.717 7.328 199.61 8.18667 199.397 8.912C199.183 9.63733 198.893 10.2373 198.525 10.712C198.157 11.1867 197.725 11.5413 197.229 11.776C196.738 12.0053 196.213 12.12 195.653 12.12C195.093 12.12 194.567 12.0053 194.077 11.776C193.586 11.5413 193.157 11.1867 192.789 10.712C192.421 10.2373 192.13 9.63733 191.917 8.912C191.709 8.18667 191.605 7.328 191.605 6.336C191.605 5.344 191.709 4.48533 191.917 3.76C192.13 3.03467 192.421 2.43467 192.789 1.96C193.157 1.48533 193.586 1.13333 194.077 0.903999C194.567 0.669333 195.093 0.551999 195.653 0.551999C196.213 0.551999 196.738 0.669333 197.229 0.903999C197.725 1.13333 198.157 1.48533 198.525 1.96C198.893 2.43467 199.183 3.03467 199.397 3.76C199.61 4.48533 199.717 5.344 199.717 6.336ZM198.917 6.336C198.917 5.41867 198.829 4.63467 198.653 3.984C198.477 3.33333 198.239 2.80267 197.941 2.392C197.647 1.976 197.301 1.672 196.901 1.48C196.506 1.288 196.09 1.192 195.653 1.192C195.215 1.192 194.799 1.288 194.405 1.48C194.01 1.672 193.663 1.976 193.365 2.392C193.066 2.80267 192.829 3.33333 192.653 3.984C192.477 4.63467 192.389 5.41867 192.389 6.336C192.389 7.25867 192.477 8.04533 192.653 8.696C192.829 9.34133 193.066 9.872 193.365 10.288C193.663 10.6987 194.01 11 194.405 11.192C194.799 11.3787 195.215 11.472 195.653 11.472C196.09 11.472 196.506 11.3787 196.901 11.192C197.301 11 197.647 10.6987 197.941 10.288C198.239 9.872 198.477 9.34133 198.653 8.696C198.829 8.04533 198.917 7.25867 198.917 6.336Z" fill="#C4C4C4"/>
</svg>
